<svg width="24" height="24" viewBox="0 0 24 24" fill="none" xmlns="http://www.w3.org/2000/svg">
<path fill-rule="evenodd" clip-rule="evenodd" d="M8.16134 2.9999C8.20928 2.99997 8.25763 3.00004 8.3064 3.00004H15.6935C15.7423 3.00004 15.7907 2.99997 15.8386 2.9999C16.5221 2.99888 17.122 2.99798 17.6565 3.2082C18.1239 3.39202 18.5376 3.69024 18.8598 4.07551C19.2283 4.51612 19.4171 5.0855 19.6323 5.73422C19.6474 5.77973 19.6626 5.82562 19.678 5.87188L20.584 8.58997L21.5528 8.10561C22.0467 7.85862 22.6474 8.05885 22.8944 8.55283C23.1414 9.0468 22.9412 9.64748 22.4472 9.89447L21.8498 10.1932C22.1354 10.4832 22.3769 10.8169 22.564 11.1841C22.8113 11.6694 22.9099 12.1861 22.9558 12.7482C23 13.2894 23 13.9538 23 14.7587V17.5C23 17.5283 23 17.5562 23 17.5839C23.0003 17.9646 23.0006 18.2925 22.9423 18.5853C22.7056 19.7754 21.7753 20.7057 20.5852 20.9424C20.2924 21.0006 19.9645 21.0004 19.5838 21.0001C19.5562 21.0001 19.5282 21 19.5 21H19C17.5135 21 16.2795 19.9189 16.0415 18.5H7.9585C7.72046 19.9189 6.48647 21 4.99997 21H4.49997C4.47173 21 4.44378 21.0001 4.4161 21.0001C4.0354 21.0004 3.70756 21.0006 3.4147 20.9424C2.22463 20.7057 1.29434 19.7754 1.05762 18.5853C0.999367 18.2925 0.999628 17.9646 0.999931 17.5839C0.999953 17.5562 0.999975 17.5283 0.999975 17.5L0.999974 14.7587C0.999962 13.9538 0.999951 13.2894 1.04417 12.7482C1.09009 12.1861 1.18866 11.6694 1.43595 11.1841C1.62304 10.8169 1.86451 10.4832 2.15016 10.1932L1.55276 9.89447C1.05878 9.64748 0.858558 9.0468 1.10555 8.55283C1.35254 8.05885 1.95321 7.85862 2.44719 8.10561L3.41591 8.58997L4.32193 5.87188C4.33736 5.82562 4.35258 5.77972 4.36767 5.73422C4.58284 5.0855 4.77168 4.51612 5.14015 4.07551C5.46233 3.69024 5.87609 3.39202 6.34347 3.2082C6.87799 2.99798 7.47787 2.99888 8.16134 2.9999ZM5.38356 9.01155C5.78758 9.00002 6.24444 9.00003 6.75868 9.00004H17.2413C17.7555 9.00003 18.2124 9.00002 18.6164 9.01155L17.7806 6.50434C17.4914 5.63657 17.4177 5.46874 17.3256 5.35853C17.2182 5.23011 17.0803 5.1307 16.9245 5.06943C16.7908 5.01685 16.6082 5.00004 15.6935 5.00004H8.3064C7.3917 5.00004 7.20918 5.01685 7.07549 5.06943C6.91969 5.1307 6.78177 5.23011 6.67438 5.35853C6.58222 5.46874 6.50856 5.63658 6.2193 6.50434L5.38356 9.01155ZM4.91101 11.0376C4.4726 11.0734 4.24839 11.1383 4.09199 11.218C3.71567 11.4098 3.40971 11.7157 3.21796 12.0921C3.13827 12.2485 3.07335 12.4727 3.03753 12.9111C3.00075 13.3612 2.99997 13.9435 2.99997 14.8V17.5C2.99997 18.0126 3.00482 18.1229 3.01919 18.1951C3.0981 18.5918 3.40819 18.9019 3.80488 18.9808C3.87713 18.9952 3.98739 19 4.49997 19H4.99997C5.55226 19 5.99997 18.5523 5.99997 18C5.99997 17.1716 6.67155 16.5 7.49997 16.5H16.5C17.3284 16.5 18 17.1716 18 18C18 18.5523 18.4477 19 19 19H19.5C20.0126 19 20.1228 18.9952 20.1951 18.9808C20.5918 18.9019 20.9019 18.5918 20.9808 18.1951C20.9951 18.1229 21 18.0126 21 17.5V14.8C21 13.9435 20.9992 13.3612 20.9624 12.9111C20.9266 12.4727 20.8617 12.2485 20.782 12.0921C20.5902 11.7157 20.2843 11.4098 19.908 11.218C19.7516 11.1383 19.5274 11.0734 19.0889 11.0376C18.6388 11.0008 18.0566 11 17.2 11H6.79997C5.9434 11 5.3611 11.0008 4.91101 11.0376ZM3.99997 13C3.99997 12.4478 4.44769 12 4.99997 12H7.99997C8.55226 12 8.99998 12.4478 8.99998 13C8.99998 13.5523 8.55226 14 7.99997 14H4.99997C4.44769 14 3.99997 13.5523 3.99997 13ZM15 13C15 12.4478 15.4477 12 16 12H19C19.5523 12 20 12.4478 20 13C20 13.5523 19.5523 14 19 14H16C15.4477 14 15 13.5523 15 13Z" fill="#131416"/>
</svg>
