<svg width="28" height="12" viewBox="0 0 28 12" fill="none" xmlns="http://www.w3.org/2000/svg">
<path d="M0.149414 8.64111H2.24951C2.34912 9.31348 2.98828 9.98584 4.04248 9.98584C5.70264 9.98584 6.4082 8.15137 6.3584 5.99316H6.25049C5.98486 6.79834 5.09668 7.62012 3.51123 7.62012C1.67676 7.62012 0 6.3335 0 3.91797C0 1.41113 1.90918 0 4.05908 0C6.77344 0 8.4668 1.81787 8.4668 5.73584C8.4668 9.46289 6.83984 11.7456 3.99268 11.7456C1.46924 11.7456 0.224121 10.0439 0.149414 8.64111ZM6.10107 3.88477C6.10107 2.50684 5.23779 1.75977 4.12549 1.75977C3.07129 1.75977 2.1416 2.48193 2.1416 3.85986C2.1416 5.22119 3.02148 5.94336 4.09229 5.94336C5.19629 5.94336 6.10107 5.08838 6.10107 3.88477Z" fill="#131416"/>
<path d="M9.28094 3.1543C9.28094 2.44043 9.86199 1.86768 10.5676 1.86768C11.2731 1.86768 11.8542 2.44043 11.8542 3.1543C11.8542 3.85986 11.2731 4.44092 10.5676 4.44092C9.86199 4.44092 9.28094 3.85986 9.28094 3.1543ZM9.28094 8.89014C9.28094 8.18457 9.86199 7.60352 10.5676 7.60352C11.2731 7.60352 11.8542 8.18457 11.8542 8.89014C11.8542 9.5957 11.2731 10.1768 10.5676 10.1768C9.86199 10.1768 9.28094 9.5957 9.28094 8.89014Z" fill="#131416"/>
<path d="M17.2254 0.20752H20.4129V7.62842H21.7992V9.43799H20.4129V11.5381H18.3046V9.43799H12.826V7.62842C14.1542 5.13818 15.6898 2.62305 17.2254 0.20752ZM14.8597 7.62842H18.3046V1.90088H18.2298C17.0677 3.70215 15.8724 5.67773 14.8597 7.60352V7.62842Z" fill="#131416"/>
<path d="M27.1954 11.5381H24.9707V2.33252H24.896C24.1988 2.76416 23.0948 3.45312 22.2896 4.00928V1.95898C23.1612 1.34473 24.149 0.730469 25.0288 0.20752H27.1954V11.5381Z" fill="#131416"/>
</svg>
